<svg width="23" height="24" viewBox="0 0 23 24" fill="none" xmlns="http://www.w3.org/2000/svg">
<path d="M6.70833 0.153809H3.83333C2.81667 0.153809 1.84165 0.557677 1.12276 1.27657C0.403868 1.99546 0 2.97048 0 3.98714L0 6.86214C0 7.87881 0.403868 8.85383 1.12276 9.57272C1.84165 10.2916 2.81667 10.6955 3.83333 10.6955H6.70833C7.725 10.6955 8.70002 10.2916 9.41891 9.57272C10.1378 8.85383 10.5417 7.87881 10.5417 6.86214V3.98714C10.5417 2.97048 10.1378 1.99546 9.41891 1.27657C8.70002 0.557677 7.725 0.153809 6.70833 0.153809ZM8.625 6.86214C8.625 7.37047 8.42307 7.85799 8.06362 8.21743C7.70418 8.57687 7.21667 8.77881 6.70833 8.77881H3.83333C3.325 8.77881 2.83749 8.57687 2.47805 8.21743C2.1186 7.85799 1.91667 7.37047 1.91667 6.86214V3.98714C1.91667 3.47881 2.1186 2.9913 2.47805 2.63185C2.83749 2.27241 3.325 2.07048 3.83333 2.07048H6.70833C7.21667 2.07048 7.70418 2.27241 8.06362 2.63185C8.42307 2.9913 8.625 3.47881 8.625 3.98714V6.86214Z" fill="#BAB9B9"/>
<path d="M19.1668 0.153809H16.2918C15.2752 0.153809 14.3001 0.557677 13.5813 1.27657C12.8624 1.99546 12.4585 2.97048 12.4585 3.98714V6.86214C12.4585 7.87881 12.8624 8.85383 13.5813 9.57272C14.3001 10.2916 15.2752 10.6955 16.2918 10.6955H19.1668C20.1835 10.6955 21.1585 10.2916 21.8774 9.57272C22.5963 8.85383 23.0002 7.87881 23.0002 6.86214V3.98714C23.0002 2.97048 22.5963 1.99546 21.8774 1.27657C21.1585 0.557677 20.1835 0.153809 19.1668 0.153809ZM21.0835 6.86214C21.0835 7.37047 20.8816 7.85799 20.5221 8.21743C20.1627 8.57687 19.6752 8.77881 19.1668 8.77881H16.2918C15.7835 8.77881 15.296 8.57687 14.9365 8.21743C14.5771 7.85799 14.3752 7.37047 14.3752 6.86214V3.98714C14.3752 3.47881 14.5771 2.9913 14.9365 2.63185C15.296 2.27241 15.7835 2.07048 16.2918 2.07048H19.1668C19.6752 2.07048 20.1627 2.27241 20.5221 2.63185C20.8816 2.9913 21.0835 3.47881 21.0835 3.98714V6.86214Z" fill="#BAB9B9"/>
<path d="M6.70833 12.6123H3.83333C2.81667 12.6123 1.84165 13.0162 1.12276 13.7351C0.403868 14.454 0 15.429 0 16.4456L0 19.3206C0 20.3373 0.403868 21.3123 1.12276 22.0312C1.84165 22.7501 2.81667 23.154 3.83333 23.154H6.70833C7.725 23.154 8.70002 22.7501 9.41891 22.0312C10.1378 21.3123 10.5417 20.3373 10.5417 19.3206V16.4456C10.5417 15.429 10.1378 14.454 9.41891 13.7351C8.70002 13.0162 7.725 12.6123 6.70833 12.6123ZM8.625 19.3206C8.625 19.829 8.42307 20.3165 8.06362 20.6759C7.70418 21.0354 7.21667 21.2373 6.70833 21.2373H3.83333C3.325 21.2373 2.83749 21.0354 2.47805 20.6759C2.1186 20.3165 1.91667 19.829 1.91667 19.3206V16.4456C1.91667 15.9373 2.1186 15.4498 2.47805 15.0904C2.83749 14.7309 3.325 14.529 3.83333 14.529H6.70833C7.21667 14.529 7.70418 14.7309 8.06362 15.0904C8.42307 15.4498 8.625 15.9373 8.625 16.4456V19.3206Z" fill="#BAB9B9"/>
<path d="M19.1668 12.6123H16.2918C15.2752 12.6123 14.3001 13.0162 13.5813 13.7351C12.8624 14.454 12.4585 15.429 12.4585 16.4456V19.3206C12.4585 20.3373 12.8624 21.3123 13.5813 22.0312C14.3001 22.7501 15.2752 23.154 16.2918 23.154H19.1668C20.1835 23.154 21.1585 22.7501 21.8774 22.0312C22.5963 21.3123 23.0002 20.3373 23.0002 19.3206V16.4456C23.0002 15.429 22.5963 14.454 21.8774 13.7351C21.1585 13.0162 20.1835 12.6123 19.1668 12.6123ZM21.0835 19.3206C21.0835 19.829 20.8816 20.3165 20.5221 20.6759C20.1627 21.0354 19.6752 21.2373 19.1668 21.2373H16.2918C15.7835 21.2373 15.296 21.0354 14.9365 20.6759C14.5771 20.3165 14.3752 19.829 14.3752 19.3206V16.4456C14.3752 15.9373 14.5771 15.4498 14.9365 15.0904C15.296 14.7309 15.7835 14.529 16.2918 14.529H19.1668C19.6752 14.529 20.1627 14.7309 20.5221 15.0904C20.8816 15.4498 21.0835 15.9373 21.0835 16.4456V19.3206Z" fill="#BAB9B9"/>
</svg>
