<svg width="123" height="117" viewBox="0 0 123 117" fill="none" xmlns="http://www.w3.org/2000/svg">
<path opacity="0.29" d="M115.038 85.3659C113.052 116.46 82.14 100.272 51.577 100.272C21.014 100.272 0 107.174 0 76.0209C0 44.8675 26.2099 0 56.7728 0C87.3358 0 117.748 42.9084 115.038 85.3659Z" fill="#FBD3A4"/>
<path d="M56.9982 116.085C84.8134 116.085 107.362 111.331 107.362 105.468C107.362 99.604 84.8134 94.8506 56.9982 94.8506C29.183 94.8506 6.63428 99.604 6.63428 105.468C6.63428 111.331 29.183 116.085 56.9982 116.085Z" fill="#E5F1D8"/>
<path d="M94.7108 43.2466H24.5244V104.544H94.7108V43.2466Z" fill="#FCFCFC"/>
<mask id="mask0_2087_10580" style="mask-type:luminance" maskUnits="userSpaceOnUse" x="24" y="43" width="71" height="62">
<path d="M94.7108 43.2466H24.5244V104.544H94.7108V43.2466Z" fill="white"/>
</mask>
<g mask="url(#mask0_2087_10580)">
<path d="M72.253 39.0386H46.9824V107.824H72.253V39.0386Z" fill="#FF9F43" stroke="black" stroke-width="1.55" stroke-miterlimit="10"/>
</g>
<path d="M94.7108 43.2466H24.5244V104.544H94.7108V43.2466Z" stroke="black" stroke-width="1.23" stroke-linecap="round" stroke-linejoin="round"/>
<path d="M94.7108 43.4826H24.5244L30.8528 32.6079H87.003L94.7108 43.4826Z" fill="#FCFCFC"/>
<mask id="mask1_2087_10580" style="mask-type:luminance" maskUnits="userSpaceOnUse" x="24" y="32" width="71" height="12">
<path d="M94.7108 43.4826H24.5244L30.8528 32.6079H87.003L94.7108 43.4826Z" fill="white"/>
</mask>
<g mask="url(#mask1_2087_10580)">
<path d="M48.8664 32.3716L46.9932 43.1336L72.0275 43.3697L70.1596 32.3716H48.8664Z" fill="#FF9F43" stroke="black" stroke-width="1.55" stroke-miterlimit="10"/>
</g>
<path d="M94.7108 43.4826H24.5244L30.8528 32.6079H87.003L94.7108 43.4826Z" stroke="black" stroke-width="1.23" stroke-linecap="round" stroke-linejoin="round"/>
<path d="M43.4826 48.2812H27.8093V58.8071H43.4826V48.2812Z" fill="#FCFCFC" stroke="black" stroke-width="1.23" stroke-linecap="round" stroke-linejoin="round"/>
<path d="M29.5645 51.2065H41.2604" stroke="black" stroke-width="1.23" stroke-linecap="round" stroke-linejoin="round"/>
<path d="M29.5645 53.7832H37.6373" stroke="black" stroke-width="1.23" stroke-linecap="round" stroke-linejoin="round"/>
<path d="M29.3284 56.2358H41.0297" stroke="black" stroke-width="1.23" stroke-linecap="round" stroke-linejoin="round"/>
<path d="M78.3987 72.1081L77.5237 74.7543C77.3896 75.1623 76.9548 75.3931 76.5415 75.275L70.7928 73.8472C70.7928 73.8472 69.9018 74.7704 69.0215 73.3856C68.1359 71.9954 69.7944 71.9095 69.7944 71.9095C69.7944 71.9095 70.036 71.0561 70.6211 71.8075L75.833 72.6986L78.8388 64.5989L79.8962 63.5146L81.7802 66.1501L78.3987 72.1189V72.1081Z" fill="white" stroke="black" stroke-width="0.55" stroke-linecap="round" stroke-linejoin="round"/>
<path d="M68.909 74.3355H62.586C61.8077 74.3355 61.1689 73.6968 61.1689 72.9185C61.1689 72.1402 61.8077 71.5015 62.586 71.5015H68.909C69.6873 71.5015 70.326 72.1402 70.326 72.9185C70.326 73.6968 69.6873 74.3355 68.909 74.3355Z" fill="white" stroke="black" stroke-width="1.11" stroke-linecap="round" stroke-linejoin="round"/>
<path d="M92.2631 85.7093L75.9671 86.1816L74.4535 95.3816L69.7998 95.1079L71.6999 83.5944C71.8985 82.3921 72.6607 81.3079 73.804 80.8677C73.9275 80.8194 74.0509 80.7818 74.1797 80.7496L94.5068 77.2017L94.6141 83.2402C94.6356 84.566 93.5889 85.661 92.2685 85.6985L92.2631 85.7093Z" fill="white" stroke="black" stroke-width="0.69" stroke-linecap="round" stroke-linejoin="round"/>
<path d="M91.3293 94.1475H122.241" stroke="black" stroke-width="1.27" stroke-linecap="round" stroke-linejoin="round"/>
<path d="M84.4641 98.3984H115.371" stroke="black" stroke-width="1.27" stroke-linecap="round" stroke-linejoin="round"/>
<path d="M80.594 91.2007H107.851" stroke="black" stroke-width="1.27" stroke-linecap="round" stroke-linejoin="round"/>
<path d="M98.8546 105.537C98.8546 109.6 95.5589 112.896 91.4957 112.896C87.4324 112.896 84.1367 109.6 84.1367 105.537C84.1367 101.474 87.4324 98.1782 91.4957 98.1782C95.5589 98.1782 98.8546 101.474 98.8546 105.537Z" fill="white"/>
<mask id="mask2_2087_10580" style="mask-type:luminance" maskUnits="userSpaceOnUse" x="84" y="98" width="15" height="15">
<path d="M98.8546 105.537C98.8546 109.6 95.5589 112.896 91.4957 112.896C87.4324 112.896 84.1367 109.6 84.1367 105.537C84.1367 101.474 87.4324 98.1782 91.4957 98.1782C95.5589 98.1782 98.8546 101.474 98.8546 105.537Z" fill="white"/>
</mask>
<g mask="url(#mask2_2087_10580)">
<path d="M95.7093 105.537C95.7093 107.867 93.8199 109.756 91.4904 109.756C89.1609 109.756 87.2769 107.867 87.2769 105.537C87.2769 103.208 89.1662 101.324 91.4904 101.324C93.8146 101.324 95.7093 103.213 95.7093 105.537Z" fill="white" stroke="black" stroke-width="1.11" stroke-linecap="round" stroke-linejoin="round"/>
</g>
<path d="M98.8546 105.537C98.8546 109.6 95.5589 112.896 91.4957 112.896C87.4324 112.896 84.1367 109.6 84.1367 105.537C84.1367 101.474 87.4324 98.1782 91.4957 98.1782C95.5589 98.1782 98.8546 101.474 98.8546 105.537Z" stroke="black" stroke-width="0.89" stroke-linecap="round" stroke-linejoin="round"/>
<path d="M62.7146 99.5418L65.9835 103.578L104.249 103.906C104.249 103.906 106.863 87.2232 80.0465 87.2232C80.0465 87.2232 81.1415 93.8843 75.7954 94.201C72.0864 94.4211 71.1149 94.2332 68.3828 91.587C65.8976 89.177 63.8955 80.8948 65.9835 74.6362L59.4404 74.9637C59.4404 74.9637 61.727 76.7081 61.0829 79.145C59.2472 86.1121 56.4829 95.924 62.7093 99.5471L62.7146 99.5418Z" fill="white" stroke="black" stroke-width="1.11" stroke-linecap="round" stroke-linejoin="round"/>
<path d="M100.433 104.883C100.433 99.8533 96.3586 95.7793 91.3292 95.7793C86.2998 95.7793 82.2258 99.8533 82.2258 104.883H100.433Z" fill="white" stroke="black" stroke-width="1.11" stroke-linecap="round" stroke-linejoin="round"/>
<path d="M72.4676 104.882C72.4676 108.946 69.172 112.241 65.1087 112.241C61.0454 112.241 57.7498 108.946 57.7498 104.882C57.7498 100.819 61.0454 97.5234 65.1087 97.5234C69.172 97.5234 72.4676 100.819 72.4676 104.882Z" fill="white"/>
<mask id="mask3_2087_10580" style="mask-type:luminance" maskUnits="userSpaceOnUse" x="57" y="97" width="16" height="16">
<path d="M72.4676 104.882C72.4676 108.946 69.172 112.241 65.1087 112.241C61.0454 112.241 57.7498 108.946 57.7498 104.882C57.7498 100.819 61.0454 97.5234 65.1087 97.5234C69.172 97.5234 72.4676 100.819 72.4676 104.882Z" fill="white"/>
</mask>
<g mask="url(#mask3_2087_10580)">
<path d="M69.3277 104.882C69.3277 107.212 67.4383 109.096 65.1088 109.096C62.7793 109.096 60.8899 107.207 60.8899 104.882C60.8899 102.558 62.7793 100.664 65.1088 100.664C67.4383 100.664 69.3277 102.553 69.3277 104.882Z" fill="white" stroke="black" stroke-width="1.11" stroke-linecap="round" stroke-linejoin="round"/>
</g>
<path d="M72.4676 104.882C72.4676 108.946 69.172 112.241 65.1087 112.241C61.0454 112.241 57.7498 108.946 57.7498 104.882C57.7498 100.819 61.0454 97.5234 65.1087 97.5234C69.172 97.5234 72.4676 100.819 72.4676 104.882Z" stroke="black" stroke-width="0.89" stroke-linecap="round" stroke-linejoin="round"/>
<path d="M74.051 104.227C74.051 99.198 69.9771 95.124 64.9476 95.124C59.9182 95.124 55.8442 99.198 55.8442 104.227H74.051Z" fill="white" stroke="black" stroke-width="1.11" stroke-linecap="round" stroke-linejoin="round"/>
<path d="M60.7501 80.0251C58.5923 80.0251 56.8264 78.2592 56.8264 76.1014C56.8264 73.9437 58.5923 72.1777 60.7501 72.1777C62.9079 72.1777 64.6738 73.9437 64.6738 76.1014C64.6738 78.2592 62.9079 80.0251 60.7501 80.0251Z" fill="white" stroke="black" stroke-width="1.11" stroke-linecap="round" stroke-linejoin="round"/>
<path d="M70.4546 76.0479H64.1316C63.3533 76.0479 62.7146 75.4092 62.7146 74.6309C62.7146 73.8526 63.3533 73.2139 64.1316 73.2139H70.4546C71.2329 73.2139 71.8717 73.8526 71.8717 74.6309C71.8717 75.4092 71.2329 76.0479 70.4546 76.0479Z" fill="white" stroke="black" stroke-width="1.11" stroke-linecap="round" stroke-linejoin="round"/>
<path d="M91.5815 86.2197L72.7842 86.7671L71.0398 97.3842L66.9014 96.7347L67.8622 83.7881C68.093 82.3979 68.9732 81.1473 70.2883 80.6481C70.4279 80.5944 70.5728 80.5461 70.7231 80.5086L94.1686 76.4185L94.2921 83.3856C94.3189 84.9153 93.1112 86.1821 91.5815 86.225V86.2197Z" fill="white" stroke="black" stroke-width="0.8" stroke-linecap="round" stroke-linejoin="round"/>
<path d="M66.1553 96.5092L66.2627 94.9955C66.3378 93.9596 67.2074 93.1705 68.195 93.2457L70.4279 93.4067C71.4156 93.4765 72.1616 94.3836 72.0865 95.4195L71.904 97.9262C71.8825 98.2053 71.7108 99.1393 71.5873 99.3701C71.2008 100.476 68.9357 100.513 66.1124 100.309C63.0851 100.089 61.5177 99.1607 61.609 97.9101C61.6949 96.74 63.4393 96.3696 66.1446 96.5092H66.1553Z" fill="black"/>
<path d="M83.8844 49.8164L79.2254 50.9061L79.1502 57.4116C79.1449 57.8785 79.3864 58.324 79.8051 58.528C80.2935 58.7696 81.0772 58.8876 82.2097 58.3777C82.2097 58.3777 82.0702 60.8092 80.7229 61.5714C80.3472 61.7861 80.2828 62.3122 80.6317 62.5752C81.8662 63.5145 84.4856 65.0335 87.9208 62.441C87.9208 62.441 85.1995 59.4781 85.6933 57.8839C86.0744 56.6601 87.5129 54.03 86.8581 51.5663C86.5145 50.2781 85.178 49.5159 83.8844 49.8218V49.8164Z" fill="white" stroke="black" stroke-width="0.76" stroke-linecap="round" stroke-linejoin="round"/>
<path d="M78.0713 49.9669C78.0713 51.0727 78.9677 51.9744 80.0788 51.9744C81.1899 51.9744 82.0862 51.078 82.0862 49.9669C82.0862 48.8559 81.1899 47.9595 80.0788 47.9595C78.9677 47.9595 78.0713 48.8559 78.0713 49.9669Z" fill="black"/>
<path d="M80.2612 50.3426C80.2612 51.7596 81.4099 52.9029 82.8216 52.9029C84.2332 52.9029 85.3819 51.7542 85.3819 50.3426C85.3819 48.9309 84.2332 47.7822 82.8216 47.7822C81.4099 47.7822 80.2612 48.9309 80.2612 50.3426Z" fill="black"/>
<path d="M83.1489 52.3499C83.1489 53.7669 84.2976 54.9102 85.7093 54.9102C87.1209 54.9102 88.2696 53.7616 88.2696 52.3499C88.2696 50.9382 87.1209 49.7896 85.7093 49.7896C84.2976 49.7896 83.1489 50.9382 83.1489 52.3499Z" fill="black"/>
<path d="M86.9387 51.0029C87.8511 51.4752 88.2698 52.5595 88.0551 53.5686C87.6633 55.4312 86.7079 58.7161 84.8936 58.1096C82.387 57.2722 82.8271 52.903 82.8271 52.903C82.8271 52.903 84.8668 49.9348 86.9387 51.0029Z" fill="black"/>
<path d="M87.9906 61.8398C87.9906 61.8398 93.7285 67.9535 93.0415 81.1094C93.0039 81.8019 92.4188 82.344 91.7264 82.344H77.5507C76.4342 82.344 75.5539 81.3939 75.6452 80.2775C76.0638 75.1675 77.599 61.8291 80.8786 61.0991C80.8786 61.0991 84.609 64.3787 87.996 61.8398H87.9906Z" fill="black"/>
<path d="M83.0095 74.0619L81.7964 77.728C81.6085 78.2916 81.0127 78.6083 80.4384 78.4472L72.4836 76.472C72.4836 76.472 71.2545 77.7548 70.0307 75.8279C68.8069 73.9063 71.1042 73.7828 71.1042 73.7828C71.1042 73.7828 71.437 72.602 72.2475 73.6379L79.4615 74.8725L81.0932 67.8087V66.5151L85.5215 67.8087L83.0095 74.0673V74.0619Z" fill="white" stroke="black" stroke-width="0.76" stroke-linecap="round" stroke-linejoin="round"/>
<path d="M78.8926 72.3014L85.2263 73.1709C85.2263 73.1709 88.0604 66.1233 84.1636 63.8582C80.2721 61.5931 77.9962 70.675 78.8926 72.3014Z" fill="white" stroke="black" stroke-width="0.76" stroke-linecap="round" stroke-linejoin="round"/>
<path d="M106.106 64.7651H87.3518V83.5194H106.106V64.7651Z" fill="white"/>
<mask id="mask4_2087_10580" style="mask-type:luminance" maskUnits="userSpaceOnUse" x="87" y="64" width="20" height="20">
<path d="M106.106 64.7651H87.3518V83.5194H106.106V64.7651Z" fill="white"/>
</mask>
<g mask="url(#mask4_2087_10580)">
<path d="M100.213 57.5674H93.4548V71.303H100.213V57.5674Z" fill="#FF9F43" stroke="black" stroke-width="1.55" stroke-miterlimit="10"/>
</g>
<path d="M106.106 64.7651H87.3518V83.5194H106.106V64.7651Z" stroke="black" stroke-width="1.27" stroke-linecap="round" stroke-linejoin="round"/>
<path d="M100.411 88.5326H78.957C77.6956 88.5326 76.665 87.5021 76.665 86.2407C76.665 84.9793 77.6956 83.9487 78.957 83.9487H100.411C101.673 83.9487 102.703 84.9793 102.703 86.2407C102.703 87.5021 101.673 88.5326 100.411 88.5326Z" fill="white" stroke="black" stroke-width="1.27" stroke-linecap="round" stroke-linejoin="round"/>
</svg>
