<svg width="23" height="24" viewBox="0 0 23 24" fill="none" xmlns="http://www.w3.org/2000/svg">
<path d="M11.5192 19.8284C9.28629 19.8284 7.05337 19.4738 4.93545 18.7647C4.13045 18.4867 3.51712 17.9213 3.24879 17.1834C2.97087 16.4455 3.0667 15.6309 3.50754 14.9026L4.60962 13.0722C4.83962 12.6888 5.05045 11.9222 5.05045 11.4718V8.70217C5.05045 5.13717 7.9542 2.23342 11.5192 2.23342C15.0842 2.23342 17.988 5.13717 17.988 8.70217V11.4718C17.988 11.9126 18.1988 12.6888 18.4288 13.0818L19.5213 14.9026C19.9334 15.5926 20.01 16.4263 19.7321 17.1834C19.4542 17.9405 18.8505 18.5155 18.0934 18.7647C15.985 19.4738 13.7521 19.8284 11.5192 19.8284ZM11.5192 3.67092C8.74962 3.67092 6.48795 5.923 6.48795 8.70217V11.4718C6.48795 12.1713 6.20045 13.2063 5.84587 13.8101L4.74379 15.6405C4.53295 15.9951 4.47545 16.3688 4.60004 16.6851C4.71504 17.0109 5.00254 17.2601 5.39545 17.3943C9.40129 18.7359 13.6467 18.7359 17.6525 17.3943C17.9975 17.2793 18.2659 17.0205 18.3905 16.6755C18.515 16.3305 18.4863 15.9568 18.2946 15.6405L17.1925 13.8101C16.8284 13.1872 16.5505 12.1618 16.5505 11.4622V8.70217C16.5505 5.923 14.2984 3.67092 11.5192 3.67092Z" fill="#BAB9B9"/>
<path d="M13.3017 3.92967C13.2346 3.92967 13.1675 3.92008 13.1005 3.90092C12.8225 3.82425 12.5542 3.76675 12.2955 3.72842C11.4809 3.623 10.695 3.6805 9.95712 3.90092C9.68879 3.98717 9.40129 3.90092 9.2192 3.69967C9.03712 3.49842 8.97962 3.21092 9.08504 2.95217C9.47795 1.94592 10.4363 1.28467 11.5288 1.28467C12.6213 1.28467 13.5796 1.93633 13.9725 2.95217C14.0684 3.21092 14.0205 3.49842 13.8384 3.69967C13.6946 3.853 13.4934 3.92967 13.3017 3.92967Z" fill="#BAB9B9"/>
<path d="M11.5192 22.0134C10.5705 22.0134 9.65045 21.6301 8.97962 20.9592C8.30879 20.2884 7.92545 19.3684 7.92545 18.4197H9.36295C9.36295 18.9851 9.59295 19.5409 9.99545 19.9434C10.398 20.3459 10.9538 20.5759 11.5192 20.5759C12.7075 20.5759 13.6755 19.608 13.6755 18.4197H15.113C15.113 20.4034 13.503 22.0134 11.5192 22.0134Z" fill="#BAB9B9"/>
</svg>
