<svg width="128" height="117" viewBox="0 0 128 117" fill="none" xmlns="http://www.w3.org/2000/svg">
<g clip-path="url(#clip0_2087_10788)">
<path d="M63.0143 117C93.2902 117 117.834 111.817 117.834 105.424C117.834 99.0305 93.2902 93.8477 63.0143 93.8477C32.7383 93.8477 8.19482 99.0305 8.19482 105.424C8.19482 111.817 32.7383 117 63.0143 117Z" fill="#E5F1D8"/>
<path opacity="0.29" d="M128 79.8346C128 111.946 98.22 96.1268 64.2499 96.1268C30.2799 96.1268 0 114.738 0 82.6316C0 50.5255 30.5326 0 64.5027 0C98.4728 0 128 47.7286 128 79.8346Z" fill="#FBD3A4"/>
<path d="M107.5 54L110.174 59.474C110.556 60.2169 110.253 61.1342 109.5 61.5L106.977 63.1597" fill="white"/>
<path d="M107.5 54L110.174 59.474C110.556 60.2169 110.253 61.1342 109.5 61.5L106.977 63.1597" stroke="black" stroke-width="0.76" stroke-linecap="round" stroke-linejoin="round"/>
<path d="M102.427 73.1827L95.0016 83.6784L99.5175 98.2541L95.9396 99.5147L88.6659 84.9277C88.0986 83.7853 88.0706 82.4515 88.5873 81.2866L94.2377 68.6299L102.427 73.1771V73.1827Z" fill="white" stroke="black" stroke-width="0.76" stroke-linecap="round" stroke-linejoin="round"/>
<path d="M107.521 71.095L104.837 84.2301L106.246 99.0028L101.332 99.1829L98.557 83.9543L100.057 69.0859" fill="white"/>
<path d="M107.521 71.095L104.837 84.2301L106.246 99.0028L101.332 99.1829L98.557 83.9543L100.057 69.0859" stroke="black" stroke-width="0.76" stroke-linecap="round" stroke-linejoin="round"/>
<path d="M100.388 97.5056L100.371 96.1718C100.36 95.2601 101.101 94.5004 102.011 94.4891L104.898 94.2697C105.808 94.2584 106.567 95.0013 106.578 95.9129L106.701 97.635C106.701 97.8827 106.752 99.2052 106.656 99.4134C106.387 100.415 104.573 100.522 101.966 100.556C99.1749 100.59 97.7932 100.336 97.7819 99.2333C97.7707 98.2034 97.8999 97.5844 100.388 97.5056Z" fill="black"/>
<path d="M95.1758 98.6257L94.6085 97.4158C94.2209 96.5885 94.5748 95.5924 95.4004 95.2041L97.2652 94.3205C98.0909 93.9322 99.085 94.2868 99.4726 95.114L100.416 97.1175C100.523 97.337 100.787 98.1361 100.787 98.3668C100.955 99.3911 99.1524 100.432 96.799 101.546C94.2715 102.74 92.6089 102.734 92.1371 101.738C91.699 100.804 92.9403 99.7344 95.1758 98.6257Z" fill="black"/>
<path d="M100.236 35.7867L95.1645 36.9797L95.0859 44.0707C95.0803 44.5771 95.3443 45.0668 95.7992 45.2919C96.3328 45.5507 97.1866 45.6858 98.4166 45.123C98.4166 45.123 97.1922 48.1057 95.7262 48.933C95.3162 49.1637 95.2488 49.7378 95.6251 50.0248C96.9731 51.049 100.899 52.3771 104.634 49.5464C104.634 49.5464 101.669 46.3161 102.214 44.5771C102.629 43.2434 104.196 40.3733 103.477 37.6888C103.101 36.2875 101.652 35.4546 100.236 35.7867Z" fill="white" stroke="black" stroke-width="0.76" stroke-linecap="round" stroke-linejoin="round"/>
<path d="M93.9064 35.9499C93.9064 37.1599 94.8837 38.1391 96.0913 38.1391C97.2989 38.1391 98.2762 37.1599 98.2762 35.9499C98.2762 34.74 97.2989 33.7607 96.0913 33.7607C94.8837 33.7607 93.9064 34.74 93.9064 35.9499Z" fill="black"/>
<path d="M96.2878 36.3551C96.2878 37.8971 97.5348 39.152 99.0794 39.152C100.624 39.152 101.871 37.9027 101.871 36.3551C101.871 34.8075 100.624 33.5581 99.0794 33.5581C97.5348 33.5581 96.2878 34.8075 96.2878 36.3551Z" fill="black"/>
<path d="M99.4332 38.544C99.4332 40.086 100.68 41.341 102.219 41.341C103.758 41.341 105.011 40.0917 105.011 38.544C105.011 36.9964 103.764 35.7471 102.219 35.7471C100.675 35.7471 99.4332 36.9964 99.4332 38.544Z" fill="black"/>
<path d="M92.1707 56.6427L90.6767 54.4873C90.1655 53.7445 90.2554 52.7371 90.9013 52.1124C93.075 50.0189 95.7542 48.8709 95.7542 48.8709L95.9171 49.0847C95.962 49.0397 96.007 48.9778 96.0519 48.9384C96.0519 48.9384 100.281 52.0055 104.376 48.9328C104.376 48.9328 106.623 47.8691 107.516 52.1462C108.336 56.0856 108.111 58.3592 107.353 58.7137C108.398 62.3042 109.083 66.5419 108.779 72.3272C108.735 73.1657 108.027 73.8185 107.19 73.8185L91.7551 73.7678C90.4071 73.7678 89.3399 72.6142 89.4522 71.2691C89.7555 67.5717 90.6654 61.6233 92.1763 56.654L92.1707 56.6427Z" fill="black"/>
<path d="M81.5382 45.3877H40.5809C39.5666 45.3877 38.7443 46.2116 38.7443 47.228V102.88C38.7443 103.897 39.5666 104.721 40.5809 104.721H81.5382C82.5526 104.721 83.3749 103.897 83.3749 102.88V47.228C83.3749 46.2116 82.5526 45.3877 81.5382 45.3877Z" fill="#FCFCFC" stroke="black" stroke-width="1.4" stroke-linecap="round" stroke-linejoin="round"/>
<path d="M41.8841 43.0517C41.1763 43.1024 40.5641 42.5678 40.5136 41.853C40.463 41.144 40.9966 40.5305 41.7043 40.4799C42.412 40.4292 43.0243 40.9639 43.0748 41.6786C43.1254 42.3877 42.5918 43.0011 41.8841 43.0517Z" fill="black"/>
<path d="M62.565 41.7686L45.2485 41.7742" stroke="black" stroke-width="1.4" stroke-linecap="round" stroke-linejoin="round"/>
<path d="M72.647 100.477H49.7026C46.546 100.477 43.9679 97.8884 43.9679 94.7312C43.9679 91.5685 46.5516 88.9854 49.7026 88.9854H72.647C75.8036 88.9854 78.3817 91.5741 78.3817 94.7312C78.3817 97.894 75.798 100.477 72.647 100.477Z" fill="#FF9F43" stroke="black" stroke-width="0.88" stroke-linecap="round" stroke-linejoin="round"/>
<path d="M54.5284 97V92.6364H56.054C56.358 92.6364 56.6087 92.6889 56.8061 92.794C57.0036 92.8977 57.1506 93.0376 57.2472 93.2138C57.3438 93.3885 57.392 93.5824 57.392 93.7955C57.392 93.983 57.3587 94.1378 57.2919 94.2599C57.2266 94.3821 57.1399 94.4787 57.032 94.5497C56.9254 94.6207 56.8097 94.6733 56.6847 94.7074V94.75C56.8182 94.7585 56.9524 94.8054 57.0874 94.8906C57.2223 94.9759 57.3352 95.098 57.4261 95.2571C57.517 95.4162 57.5625 95.6108 57.5625 95.8409C57.5625 96.0597 57.5128 96.2564 57.4134 96.4311C57.3139 96.6058 57.157 96.7443 56.9425 96.8466C56.728 96.9489 56.4489 97 56.1051 97H54.5284ZM55.0568 96.5312H56.1051C56.4503 96.5312 56.6953 96.4645 56.8402 96.331C56.9865 96.196 57.0597 96.0327 57.0597 95.8409C57.0597 95.6932 57.022 95.5568 56.9467 95.4318C56.8714 95.3054 56.7642 95.2045 56.625 95.1293C56.4858 95.0526 56.321 95.0142 56.1307 95.0142H55.0568V96.5312ZM55.0568 94.554H56.0369C56.196 94.554 56.3395 94.5227 56.4673 94.4602C56.5966 94.3977 56.6989 94.3097 56.7741 94.196C56.8509 94.0824 56.8892 93.9489 56.8892 93.7955C56.8892 93.6037 56.8224 93.4411 56.6889 93.3075C56.5554 93.1726 56.3438 93.1051 56.054 93.1051H55.0568V94.554ZM61.2944 92.6364H61.8228V95.5256C61.8228 95.8239 61.7525 96.0902 61.6119 96.3246C61.4727 96.5575 61.2759 96.7415 61.0217 96.8764C60.7674 97.0099 60.4691 97.0767 60.1268 97.0767C59.7844 97.0767 59.4862 97.0099 59.2319 96.8764C58.9776 96.7415 58.7802 96.5575 58.6396 96.3246C58.5004 96.0902 58.4308 95.8239 58.4308 95.5256V92.6364H58.9592V95.483C58.9592 95.696 59.006 95.8857 59.0998 96.0518C59.1935 96.2166 59.3271 96.3466 59.5004 96.4418C59.6751 96.5355 59.8839 96.5824 60.1268 96.5824C60.3697 96.5824 60.5785 96.5355 60.7532 96.4418C60.9279 96.3466 61.0614 96.2166 61.1538 96.0518C61.2475 95.8857 61.2944 95.696 61.2944 95.483V92.6364ZM62.503 92.6364H63.1081L64.3184 94.6733H64.3695L65.5797 92.6364H66.1848L64.6081 95.2017V97H64.0797V95.2017L62.503 92.6364Z" fill="black"/>
<path d="M46.7987 58.8716H75.3205" stroke="black" stroke-width="1.08" stroke-linecap="round" stroke-linejoin="round"/>
<path d="M46.7987 65.4956H75.3205" stroke="black" stroke-width="1.08" stroke-linecap="round" stroke-linejoin="round"/>
<path d="M46.7987 72.1191H75.3205" stroke="black" stroke-width="1.08" stroke-linecap="round" stroke-linejoin="round"/>
<path d="M46.7987 78.7373H75.3205" stroke="black" stroke-width="1.08" stroke-linecap="round" stroke-linejoin="round"/>
<path d="M29.0723 76.2778H17.0356C16.0833 76.2778 15.3113 77.0514 15.3113 78.0055V97.2129C15.3113 98.1671 16.0833 98.9406 17.0356 98.9406H29.0723C30.0246 98.9406 30.7966 98.1671 30.7966 97.2129V78.0055C30.7966 77.0514 30.0246 76.2778 29.0723 76.2778Z" fill="#FF9F43" stroke="black" stroke-width="0.88" stroke-linecap="round" stroke-linejoin="round"/>
<path d="M12.4298 96.5375L16.457 107.033C16.9176 108.243 18.0803 109.037 19.3721 109.037H34.4812C35.8067 109.037 36.9919 108.192 37.43 106.937L41.0752 96.4418C41.7829 94.4102 40.2777 92.2886 38.1264 92.2886H15.3449C13.1544 92.2886 11.6491 94.489 12.4298 96.5375Z" fill="#FCFCFC" stroke="black" stroke-width="1.08" stroke-linecap="round" stroke-linejoin="round"/>
<path d="M21.1302 96.9652C21.1302 97.6687 20.5629 98.2371 19.8608 98.2371C19.1587 98.2371 18.5914 97.6687 18.5914 96.9652C18.5914 96.2618 19.1587 95.6934 19.8608 95.6934C20.5629 95.6934 21.1302 96.2618 21.1302 96.9652Z" stroke="black" stroke-linecap="round" stroke-linejoin="round"/>
<path d="M34.5262 96.9652C34.5262 97.6687 33.9589 98.2371 33.2568 98.2371C32.5547 98.2371 31.9874 97.6687 31.9874 96.9652C31.9874 96.2618 32.5547 95.6934 33.2568 95.6934C33.9589 95.6934 34.5262 96.2618 34.5262 96.9652Z" stroke="black" stroke-linecap="round" stroke-linejoin="round"/>
<path d="M33.0096 97.4604C33.0096 100.882 30.1001 103.662 26.5166 103.662C22.9332 103.662 20.0237 100.888 20.0237 97.4604" stroke="black" stroke-width="0.93" stroke-linecap="round" stroke-linejoin="round"/>
<path d="M20.3101 90.3191C20.3101 93.4932 17.7432 96.065 14.5754 96.065C11.4076 96.065 8.8407 93.4932 8.8407 90.3191C8.8407 87.1451 11.4076 84.5732 14.5754 84.5732C17.7432 84.5732 20.3101 87.1451 20.3101 90.3191Z" fill="white" stroke="black" stroke-linecap="round" stroke-linejoin="round"/>
<path d="M15.3097 86.7273V94H14.429V87.6506H14.3864L12.6108 88.8295V87.9347L14.429 86.7273H15.3097Z" fill="black"/>
<path d="M98.5644 94H86.7243C85.772 94 85 94.7735 85 95.7277V103.426C85 104.381 85.772 105.154 86.7243 105.154H98.5644C99.5168 105.154 100.289 104.381 100.289 103.426V95.7277C100.289 94.7735 99.5168 94 98.5644 94Z" fill="#FCFCFC"/>
<mask id="mask0_2087_10788" style="mask-type:luminance" maskUnits="userSpaceOnUse" x="85" y="94" width="16" height="12">
<path d="M98.5644 94H86.7243C85.772 94 85 94.7735 85 95.7277V103.426C85 104.381 85.772 105.154 86.7243 105.154H98.5644C99.5168 105.154 100.289 104.381 100.289 103.426V95.7277C100.289 94.7735 99.5168 94 98.5644 94Z" fill="white"/>
</mask>
<g mask="url(#mask0_2087_10788)">
<path d="M94.6945 91.7998H90.5999V106.252H94.6945V91.7998Z" fill="#FF9F43" stroke="black" stroke-width="0.88" stroke-linecap="round" stroke-linejoin="round"/>
</g>
<path d="M98.5644 94H86.7243C85.772 94 85 94.7735 85 95.7277V103.426C85 104.381 85.772 105.154 86.7243 105.154H98.5644C99.5168 105.154 100.289 104.381 100.289 103.426V95.7277C100.289 94.7735 99.5168 94 98.5644 94Z" stroke="black" stroke-width="1.08" stroke-linecap="round" stroke-linejoin="round"/>
<path d="M67.937 36.3796L87.2352 36.1907C88.2125 36.1811 89.0122 36.9668 89.0217 37.946L89.1442 50.5008C89.1538 51.48 88.3696 52.2812 87.3923 52.2907L68.0941 52.4797C67.1168 52.4893 66.3172 51.7036 66.3076 50.7244L66.1851 38.1696C66.1756 37.1904 66.9598 36.3892 67.937 36.3796Z" fill="white"/>
<mask id="mask1_2087_10788" style="mask-type:luminance" maskUnits="userSpaceOnUse" x="66" y="36" width="24" height="17">
<path d="M67.937 36.3796L87.2352 36.1907C88.2125 36.1811 89.0122 36.9668 89.0217 37.946L89.1442 50.5008C89.1538 51.48 88.3696 52.2812 87.3923 52.2907L68.0941 52.4797C67.1168 52.4893 66.3172 51.7036 66.3076 50.7244L66.1851 38.1696C66.1756 37.1904 66.9598 36.3892 67.937 36.3796Z" fill="white"/>
</mask>
<g mask="url(#mask1_2087_10788)">
<path d="M93.4903 43.4399L62.6222 43.7422L62.6863 50.3094L93.5544 50.0071L93.4903 43.4399Z" fill="#FF9F43" stroke="black" stroke-width="0.63" stroke-linecap="round" stroke-linejoin="round"/>
<path d="M72.1246 40.2161C72.1359 41.2403 71.3158 42.0789 70.2936 42.0901C69.2713 42.1014 68.4344 41.2797 68.4232 40.2555C68.412 39.2312 69.232 38.3927 70.2543 38.3815C71.2765 38.3702 72.1134 39.1919 72.1246 40.2161Z" fill="white" stroke="black" stroke-width="0.86" stroke-linecap="round" stroke-linejoin="round"/>
<path d="M74.6635 40.1878C74.6747 41.212 73.8547 42.0505 72.8324 42.0618C71.8102 42.0731 70.9733 41.2514 70.962 40.2272C70.9508 39.2029 71.7708 38.3644 72.7931 38.3531C73.8153 38.3419 74.6522 39.1635 74.6635 40.1878Z" stroke="black" stroke-width="0.86" stroke-linecap="round" stroke-linejoin="round"/>
</g>
<path d="M67.937 36.3796L87.2352 36.1907C88.2125 36.1811 89.0122 36.9668 89.0217 37.946L89.1442 50.5008C89.1538 51.48 88.3696 52.2812 87.3923 52.2907L68.0941 52.4797C67.1168 52.4893 66.3172 51.7036 66.3076 50.7244L66.1851 38.1696C66.1756 37.1904 66.9598 36.3892 67.937 36.3796Z" stroke="black" stroke-width="0.86" stroke-linecap="round" stroke-linejoin="round"/>
<path d="M93.3784 57.6783L89.0648 60.6666C88.5087 60.9986 87.7897 60.8298 87.4359 60.2839L82.319 52.9623C82.319 52.9623 80.3925 53.1367 80.7632 50.6774C81.1339 48.2181 83.1054 49.7657 83.1054 49.7657C83.1054 49.7657 84.2231 49.0285 84.1501 50.4636L87.8571 55.6861L91.0418 53.4913L93.3784 57.6783Z" fill="white" stroke="black" stroke-width="0.76" stroke-linecap="round" stroke-linejoin="round"/>
<path d="M96.7316 33.8169C96.7316 33.8169 107.589 30.0182 108.162 44.0706C108.207 45.2355 107.28 46.2148 106.117 46.1979L102.258 46.1416C101.231 46.1247 100.377 45.3425 100.264 44.3182L99.7253 39.2026" fill="black"/>
<path d="M96.7316 33.8169C96.7316 33.8169 107.589 30.0182 108.162 44.0706C108.207 45.2355 107.28 46.2148 106.117 46.1979L102.258 46.1416C101.231 46.1247 100.377 45.3425 100.264 44.3182L99.7253 39.2026" stroke="black" stroke-width="0.77" stroke-linecap="round" stroke-linejoin="round"/>
<path d="M5.92566 63.7222H19.0351" stroke="black" stroke-linecap="round" stroke-linejoin="round"/>
<path d="M0.516724 59.5352H13.6262" stroke="black" stroke-linecap="round" stroke-linejoin="round"/>
<path d="M30.186 46.0738L9.5957 52.0987C9.13416 52.2338 8.86928 52.7181 9.00407 53.1806L12.043 63.6065C12.1777 64.069 12.6612 64.3344 13.1227 64.1993L33.713 58.1744C34.1745 58.0393 34.4394 57.555 34.3046 57.0925L31.2657 46.6666C31.1309 46.2041 30.6475 45.9387 30.186 46.0738Z" fill="#FCFCFC"/>
<mask id="mask2_2087_10788" style="mask-type:luminance" maskUnits="userSpaceOnUse" x="8" y="46" width="27" height="19">
<path d="M30.186 46.0738L9.5957 52.0987C9.13416 52.2338 8.86928 52.7181 9.00407 53.1806L12.043 63.6065C12.1777 64.069 12.6612 64.3344 13.1227 64.1993L33.713 58.1744C34.1745 58.0393 34.4394 57.555 34.3046 57.0925L31.2657 46.6666C31.1309 46.2041 30.6475 45.9387 30.186 46.0738Z" fill="white"/>
</mask>
<g mask="url(#mask2_2087_10788)">
<path d="M13.0927 51.1049C13.7667 53.4123 12.4411 55.8322 10.1383 56.5075C7.8354 57.1828 5.4202 55.8547 4.74619 53.5473C4.07218 51.24 5.39774 48.8201 7.7006 48.1447C10.0035 47.4694 12.4187 48.7975 13.0927 51.1049Z" fill="#FCFCFC" stroke="black" stroke-width="0.81" stroke-linecap="round" stroke-linejoin="round"/>
<path d="M35.116 44.6611C35.79 46.9684 34.4644 49.3883 32.1616 50.0637C29.8587 50.739 27.4435 49.4108 26.7695 47.1035C26.0955 44.7961 27.421 42.3762 29.7239 41.7009C32.0268 41.0256 34.442 42.3537 35.116 44.6611Z" fill="#FCFCFC" stroke="black" stroke-width="0.81" stroke-linecap="round" stroke-linejoin="round"/>
<path d="M16.62 63.2099C17.294 65.5172 15.9685 67.9372 13.6656 68.6125C11.3627 69.2878 8.94755 67.9597 8.27354 65.6523C7.59953 63.345 8.92508 60.925 11.2279 60.2497C13.5308 59.5744 15.946 60.9025 16.62 63.2099Z" fill="#FCFCFC" stroke="black" stroke-width="0.81" stroke-linecap="round" stroke-linejoin="round"/>
<path d="M38.6432 56.7607C39.3172 59.068 37.9917 61.4879 35.6888 62.1633C33.3859 62.8386 30.9707 61.5104 30.2967 59.2031C29.6227 56.8957 30.9483 54.4758 33.2511 53.8005C35.554 53.1252 37.9692 54.4533 38.6432 56.7607Z" fill="#FCFCFC" stroke="black" stroke-width="0.81" stroke-linecap="round" stroke-linejoin="round"/>
</g>
<path d="M30.186 46.0738L9.5957 52.0987C9.13416 52.2338 8.86928 52.7181 9.00407 53.1806L12.043 63.6065C12.1777 64.069 12.6612 64.3344 13.1227 64.1993L33.713 58.1744C34.1745 58.0393 34.4394 57.555 34.3046 57.0925L31.2657 46.6666C31.1309 46.2041 30.6475 45.9387 30.186 46.0738Z" stroke="black" stroke-width="0.81" stroke-linecap="round" stroke-linejoin="round"/>
<path d="M22.8338 59.9212L20.2899 51.1935L20.8488 51.0299L23.3927 59.7577L22.8338 59.9212ZM22.9344 53.2613C22.7928 52.9278 22.5488 52.7081 22.2023 52.6023C21.8558 52.4965 21.4712 52.5054 21.0486 52.6291C20.7396 52.7195 20.4838 52.8486 20.2812 53.0164C20.0809 53.1836 19.9414 53.3736 19.8629 53.5865C19.7867 53.7988 19.781 54.0163 19.846 54.239C19.9003 54.4254 19.9913 54.5726 20.119 54.6808C20.2483 54.786 20.3963 54.8624 20.563 54.9098C20.7291 54.9549 20.8976 54.9833 21.0687 54.9949C21.2391 55.0043 21.394 55.007 21.5335 55.0032L22.298 54.9867C22.4937 54.9813 22.7152 54.988 22.9623 55.0069C23.2118 55.0252 23.46 55.0772 23.7069 55.1628C23.9554 55.2455 24.1794 55.3797 24.3791 55.5655C24.5787 55.7513 24.7262 56.0078 24.8216 56.3351C24.9316 56.7124 24.9321 57.0822 24.8232 57.4447C24.7166 57.8064 24.5009 58.1322 24.176 58.4221C23.8535 58.7114 23.4241 58.9345 22.8878 59.0914C22.388 59.2377 21.9316 59.2836 21.5187 59.2293C21.1082 59.1743 20.7563 59.0331 20.4631 58.8056C20.1722 58.5774 19.9575 58.2764 19.8189 57.9026L20.6914 57.6473C20.791 57.9043 20.9432 58.0965 21.1481 58.224C21.3545 58.3486 21.5893 58.4181 21.8524 58.4324C22.1171 58.4437 22.388 58.4088 22.6652 58.3277C22.9879 58.2333 23.2623 58.0963 23.4886 57.9166C23.7142 57.7346 23.8745 57.5274 23.9695 57.2949C24.0638 57.0601 24.0739 56.8154 23.9997 56.5608C23.9321 56.329 23.8124 56.1593 23.6405 56.0517C23.4686 55.9442 23.2637 55.8758 23.0259 55.8468C22.7881 55.8177 22.5365 55.8049 22.2713 55.8086L21.3409 55.8144C20.7498 55.8171 20.2529 55.7196 19.85 55.5218C19.4471 55.3239 19.1771 54.9897 19.0399 54.5193C18.926 54.1283 18.9323 53.7565 19.0588 53.4037C19.1869 53.048 19.4069 52.737 19.7189 52.4706C20.0325 52.2012 20.4119 52.0014 20.8573 51.8711C21.3072 51.7394 21.7306 51.7031 22.1275 51.7621C22.5238 51.8188 22.8646 51.9559 23.1499 52.1733C23.4375 52.3901 23.6383 52.673 23.7524 53.0219L22.9344 53.2613Z" fill="black"/>
<path d="M34.3027 56.7424L13.015 54.1009C12.5378 54.0417 12.1031 54.3812 12.044 54.8593L10.7116 65.6385C10.6525 66.1166 10.9914 66.5521 11.4686 66.6113L32.7563 69.2529C33.2335 69.3121 33.6682 68.9726 33.7273 68.4945L35.0597 57.7153C35.1188 57.2372 34.7799 56.8017 34.3027 56.7424Z" fill="#FCFCFC"/>
<mask id="mask3_2087_10788" style="mask-type:luminance" maskUnits="userSpaceOnUse" x="10" y="54" width="26" height="16">
<path d="M34.3027 56.7424L13.015 54.1009C12.5378 54.0417 12.1031 54.3812 12.044 54.8593L10.7116 65.6385C10.6525 66.1166 10.9914 66.5521 11.4686 66.6113L32.7563 69.2529C33.2335 69.3121 33.6682 68.9726 33.7273 68.4945L35.0597 57.7153C35.1188 57.2372 34.7799 56.8017 34.3027 56.7424Z" fill="white"/>
</mask>
<g mask="url(#mask3_2087_10788)">
<path d="M16.6087 54.5772C16.311 56.9633 14.143 58.6629 11.7615 58.3646C9.37998 58.0664 7.68372 55.8941 7.98141 53.5079C8.2791 51.1218 10.4472 49.4222 12.8343 49.7205C15.2158 50.0188 16.912 52.1911 16.6143 54.5772H16.6087Z" fill="#FCFCFC" stroke="black" stroke-width="0.81" stroke-linecap="round" stroke-linejoin="round"/>
<path d="M39.3791 57.4078C39.0814 59.7939 36.9134 61.4935 34.5262 61.1952C32.1447 60.8969 30.4485 58.7246 30.7462 56.3385C31.0439 53.9524 33.2119 52.2528 35.5934 52.5511C37.9749 52.8493 39.6712 55.0216 39.3735 57.4078H39.3791Z" fill="#FCFCFC" stroke="black" stroke-width="0.81" stroke-linecap="round" stroke-linejoin="round"/>
<path d="M15.0586 67.0874C14.7609 69.4736 12.5928 71.1732 10.2113 70.8749C7.82981 70.5766 6.13355 68.4043 6.43124 66.0182C6.72892 63.632 8.89699 61.9325 11.2785 62.2307C13.66 62.529 15.3562 64.7013 15.0586 67.0874Z" fill="#FCFCFC" stroke="black" stroke-width="0.81" stroke-linecap="round" stroke-linejoin="round"/>
<path d="M37.8288 69.9185C37.5311 72.3047 35.3631 74.0042 32.9816 73.706C30.6001 73.4077 28.9038 71.2354 29.2015 68.8492C29.4992 66.4631 31.6673 64.7635 34.0544 65.0618C36.4359 65.3601 38.1321 67.5324 37.8344 69.9185H37.8288Z" fill="#FCFCFC" stroke="black" stroke-width="0.81" stroke-linecap="round" stroke-linejoin="round"/>
</g>
<path d="M34.3027 56.7424L13.015 54.1009C12.5378 54.0417 12.1031 54.3812 12.044 54.8593L10.7116 65.6385C10.6525 66.1166 10.9914 66.5521 11.4686 66.6113L32.7563 69.2529C33.2335 69.3121 33.6682 68.9726 33.7273 68.4945L35.0597 57.7153C35.1188 57.2372 34.7799 56.8017 34.3027 56.7424Z" stroke="black" stroke-width="0.81" stroke-linecap="round" stroke-linejoin="round"/>
<path d="M21.5729 66.183L22.6882 57.1608L23.2661 57.2325L22.1509 66.2548L21.5729 66.183ZM24.2989 60.1089C24.3008 59.7465 24.1635 59.448 23.8872 59.2133C23.6109 58.9786 23.2542 58.8342 22.8172 58.7799C22.4977 58.7403 22.2117 58.7573 21.9593 58.8309C21.7092 58.9049 21.5061 59.024 21.3498 59.1883C21.1959 59.3529 21.1047 59.5503 21.0762 59.7805C21.0524 59.9732 21.0777 60.1445 21.1522 60.2945C21.2293 60.4425 21.3351 60.5713 21.4694 60.681C21.604 60.7883 21.7476 60.8813 21.9001 60.9599C22.0529 61.0361 22.1941 61.1001 22.3236 61.152L23.0323 61.4403C23.2141 61.513 23.4148 61.607 23.6343 61.7225C23.8561 61.8383 24.0635 61.9845 24.2563 62.1611C24.4518 62.3357 24.6045 62.5479 24.7144 62.7977C24.8242 63.0475 24.8583 63.3416 24.8164 63.6799C24.7682 64.0699 24.6225 64.4097 24.3792 64.6991C24.1382 64.9889 23.8112 65.2024 23.3983 65.3396C22.9877 65.4771 22.5052 65.5115 21.9507 65.4427C21.4338 65.3785 20.9966 65.2396 20.639 65.0258C20.2837 64.8124 20.0164 64.543 19.8371 64.2178C19.6602 63.8929 19.5821 63.5313 19.6027 63.1331L20.5048 63.2451C20.4946 63.5205 20.5584 63.7575 20.6961 63.9558C20.8364 64.1522 21.0245 64.3091 21.2605 64.4267C21.4991 64.5421 21.7617 64.6177 22.0483 64.6532C22.3819 64.6946 22.6881 64.6778 22.967 64.6026C23.2461 64.5251 23.4753 64.3985 23.6544 64.2227C23.8339 64.0446 23.9399 63.824 23.9724 63.5608C24.002 63.3212 23.9592 63.1179 23.8438 62.9509C23.7285 62.7839 23.5674 62.6399 23.3605 62.5188C23.1537 62.3977 22.9277 62.2861 22.6827 62.1842L21.826 61.8202C21.2821 61.5881 20.8644 61.3013 20.5726 60.9597C20.2809 60.6182 20.1651 60.2042 20.2252 59.7179C20.2751 59.3137 20.4279 58.9749 20.6836 58.7012C20.9419 58.4256 21.267 58.2273 21.6588 58.1066C22.0533 57.9838 22.4808 57.9509 22.9412 58.0081C23.4064 58.0658 23.8096 58.2005 24.1508 58.4122C24.4923 58.6216 24.751 58.8827 24.927 59.1956C25.1054 59.5088 25.178 59.8482 25.1447 60.2138L24.2989 60.1089Z" fill="black"/>
</g>
<defs>
<clipPath id="clip0_2087_10788">
<rect width="128" height="117" fill="white"/>
</clipPath>
</defs>
</svg>
